<svg width="250" height="250" xmlns="http://www.w3.org/2000/svg">
 <!-- Created with Method Draw - http://github.com/duopixel/Method-Draw/ -->

 <g>
  <title>background</title>
  <rect fill="#fff" id="canvas_background" height="252" width="252" y="-1" x="-1"/>
  <g display="none" overflow="visible" y="0" x="0" height="100%" width="100%" id="canvasGrid">
   <rect fill="url(#gridpattern)" stroke-width="0" y="0" x="0" height="100%" width="100%"/>
  </g>
 </g>
 <g>
  <title>Layer 1</title>
  <path transform="rotate(135 124.00102233886719,108.49899291992188) " stroke="null" id="svg_6" fill="#3F3A34" d="m225.765129,105.633804l0,-29.367716c4.074073,-1.45277 7.018214,-5.312788 7.018214,-9.881645c0,-5.804063 -4.723258,-10.527321 -10.527321,-10.527321c-1.207133,0 -2.351102,0.245637 -3.431907,0.621112l-15.724308,-19.658017c1.003605,-1.603662 1.61068,-3.488052 1.61068,-5.523334c0,-5.804063 -4.723258,-10.527321 -10.527321,-10.527321c-2.951159,0 -5.611062,1.228187 -7.527034,3.189778l-27.66229,-12.766131c0.031582,-0.319329 0.098255,-0.624621 0.098255,-0.950968c0,-5.804063 -4.723258,-10.527321 -10.527321,-10.527321c-4.568857,0 -8.428875,2.944141 -9.881645,7.018214l-39.891528,0c-1.45277,-4.074073 -5.312788,-7.018214 -9.881645,-7.018214c-5.804063,0 -10.527321,4.723258 -10.527321,10.527321c0,0.435129 0.0772,0.852713 0.129837,1.273806l-17.405171,8.702585c-1.894918,-1.821227 -4.456566,-2.958177 -7.288415,-2.958177c-5.804063,0 -10.527321,4.723258 -10.527321,10.527321c0,2.035282 0.607076,3.919672 1.607171,5.530353l-15.724308,19.654508c-1.080805,-0.375474 -2.221265,-0.621112 -3.428397,-0.621112c-5.804063,0 -10.527321,4.723258 -10.527321,10.527321c0,4.568857 2.944141,8.428875 7.018214,9.881645l0,22.349502c-4.074073,1.449261 -7.018214,5.309279 -7.018214,9.878136c0,5.804063 4.723258,10.527321 10.527321,10.527321c3.898618,0 7.267361,-2.154592 9.088587,-5.309279l19.156215,3.484543c0.810604,5.000477 5.126805,8.84295 10.355375,8.84295c0.143873,0 0.27371,-0.035091 0.414075,-0.042109l6.695376,16.73844c-2.189683,1.933518 -3.600344,4.723258 -3.600344,7.867418c0,5.804063 4.723258,10.527321 10.527321,10.527321c3.530162,0 6.642739,-1.761572 8.551694,-4.435511l30.115156,8.60433c0.270201,4.274092 3.077487,7.839345 6.951541,9.221933l0,25.858609c-4.074073,1.45277 -7.018214,5.312788 -7.018214,9.881645c0,5.804063 4.723258,10.527321 10.527321,10.527321s10.527321,-4.723258 10.527321,-10.527321c0,-4.568857 -2.944141,-8.428875 -7.018214,-9.881645l0,-25.858609c4.074073,-1.45277 7.018214,-5.312788 7.018214,-9.881645c0,-3.361724 -1.614189,-6.330429 -4.077582,-8.256929l4.189874,-12.569621l31.487217,10.495739c0.084219,4.48113 2.982741,8.24991 6.997159,9.681626l0,36.38593c-4.074073,1.45277 -7.018214,5.312788 -7.018214,9.881645c0,5.804063 4.723258,10.527321 10.527321,10.527321s10.527321,-4.723258 10.527321,-10.527321c0,-4.568857 -2.944141,-8.428875 -7.018214,-9.881645l0,-36.382421c4.074073,-1.45277 7.018214,-5.312788 7.018214,-9.881645c0,-1.280824 -0.263183,-2.494975 -0.684276,-3.631926l26.925378,-22.43723c1.57208,0.933422 3.386288,1.505407 5.34437,1.505407c5.804063,0 10.527321,-4.723258 10.527321,-10.527321c0,-4.568857 -2.944141,-8.428875 -7.018214,-9.881645zm-150.912654,6.176028c-0.007018,-0.421093 -0.070182,-0.82464 -0.126328,-1.231697l28.785204,-14.924232l8.902604,28.679931l-37.561481,-12.524003zm-7.832327,-9.944809l-4.863622,-37.294789l24.04791,-1.203624c1.526462,3.698599 5.102242,6.316393 9.306152,6.48483l5.891791,18.987778l-29.887064,15.496216c-1.25626,-1.168533 -2.78974,-2.017736 -4.495166,-2.470411zm-31.546872,-42.98656c-0.221074,-0.536893 -0.505311,-1.042205 -0.810604,-1.529971l15.724308,-19.654508c0.407056,0.140364 0.807095,0.291256 1.231697,0.382493l2.59323,19.865054l-18.738631,0.936932zm23.100451,-21.749445c3.410852,-1.744026 5.772481,-5.256642 5.772481,-9.341243c0,-0.435129 -0.0772,-0.852713 -0.129837,-1.273806l17.405171,-8.702585c1.894918,1.821227 4.456566,2.958177 7.288415,2.958177c2.154592,0 4.158292,-0.656203 5.828627,-1.772099l21.791554,16.341911l-15.776945,14.724213c-1.45277,-0.750949 -3.077487,-1.221169 -4.825022,-1.221169c-4.751331,0 -8.730658,3.18276 -10.036046,7.516507l-24.647967,1.231697l-2.67043,-20.461603zm80.351531,-22.686376l-17.184097,16.036619l-22.307393,-16.727913l39.249361,0c0.084219,0.231601 0.143873,0.466711 0.242128,0.691294zm9.78339,49.867919l-28.237784,14.643503l-15.071614,-15.071614c0.656203,-1.37557 1.056241,-2.891504 1.056241,-4.512712c0,-1.49488 -0.322838,-2.90905 -0.884295,-4.196892l16.66124,-15.552362l26.855196,20.142274c-0.308801,0.989568 -0.522857,2.024755 -0.522857,3.116087c0,0.491275 0.080709,0.957986 0.143873,1.431716zm-49.271371,-4.940823c0,1.933518 -1.57208,3.509107 -3.509107,3.509107s-3.509107,-1.575589 -3.509107,-3.509107s1.57208,-3.509107 3.509107,-3.509107s3.509107,1.575589 3.509107,3.509107zm14.49963,22.970614l-6.20761,3.217851l-4.24251,-13.667972l10.450121,10.450121zm-4.095128,10.029028l9.299133,-4.821513l16.440166,16.440166c-0.652694,1.372061 -1.052732,2.887995 -1.052732,4.509202c0,3.365234 1.614189,6.330429 4.077582,8.256929l-4.891695,14.675085l-13.103005,-4.368838l-10.769449,-34.691031zm35.213888,19.636963c-1.937027,0 -3.509107,-1.575589 -3.509107,-3.509107s1.57208,-3.509107 3.509107,-3.509107s3.509107,1.575589 3.509107,3.509107c0,1.933518 -1.57208,3.509107 -3.509107,3.509107zm0,-14.036428c-1.621207,0 -3.137142,0.396529 -4.509202,1.056241l-14.868086,-14.868086l26.24812,-13.611826c1.880881,1.761572 4.389893,2.859922 7.165596,2.859922c1.958082,0 3.77229,-0.571984 5.34437,-1.508916l15.976964,13.313552l-28.364112,15.471653c-1.866845,-1.666826 -4.298656,-2.71254 -6.99365,-2.71254zm44.137547,-57.461626c1.49137,0.814113 3.175742,1.315915 4.98995,1.315915c1.207133,0 2.347593,-0.245637 3.428397,-0.621112l15.724308,19.658017c-1.000095,1.61068 -1.607171,3.491561 -1.607171,5.526843c0,0.564966 0.080709,1.112387 0.168437,1.652789l-24.855005,13.559189l-18.106992,-15.08916c0.421093,-1.136951 0.684276,-2.351102 0.684276,-3.631926c0,-1.428207 -0.291256,-2.786231 -0.807095,-4.028455l20.380893,-18.342102zm27.721945,65.985247l-24.075983,-20.065074l22.426703,-12.232747c1.007114,0.90535 2.182665,1.607171 3.484543,2.070373l0,29.367716c-0.645676,0.231601 -1.25626,0.515839 -1.835263,0.859731zm-54.313957,-43.61469c0,1.933518 -1.57208,3.509107 -3.509107,3.509107s-3.509107,-1.575589 -3.509107,-3.509107s1.57208,-3.509107 3.509107,-3.509107s3.509107,1.575589 3.509107,3.509107zm23.609272,27.167506l25.14626,20.956387l-54.482395,-4.954859l29.336134,-16.001528zm39.554654,-23.658399c0,1.933518 -1.57208,3.509107 -3.509107,3.509107s-3.509107,-1.575589 -3.509107,-3.509107s1.57208,-3.509107 3.509107,-3.509107s3.509107,1.575589 3.509107,3.509107zm-31.581963,-38.600177c1.937027,0 3.509107,1.575589 3.509107,3.509107s-1.57208,3.509107 -3.509107,3.509107s-3.509107,-1.575589 -3.509107,-3.509107s1.57208,-3.509107 3.509107,-3.509107zm-10.432575,2.558139c-0.028073,0.319329 -0.094746,0.624621 -0.094746,0.950968c0,1.428207 0.291256,2.786231 0.807095,4.028455l-20.384402,18.342102c-1.487861,-0.814113 -3.172233,-1.315915 -4.986441,-1.315915c-2.154592,0 -4.158292,0.656203 -5.828627,1.772099l-25.820009,-19.366761l16.299802,-15.211979c1.449261,0.757967 3.073978,1.224678 4.821513,1.224678c2.951159,0 5.614571,-1.228187 7.527034,-3.189778l27.658781,12.766131zm-35.185815,-23.612781c1.937027,0 3.509107,1.575589 3.509107,3.509107s-1.57208,3.509107 -3.509107,3.509107s-3.509107,-1.575589 -3.509107,-3.509107s1.57208,-3.509107 3.509107,-3.509107zm-59.654818,0c1.937027,0 3.509107,1.575589 3.509107,3.509107s-1.57208,3.509107 -3.509107,3.509107s-3.509107,-1.575589 -3.509107,-3.509107s1.57208,-3.509107 3.509107,-3.509107zm-35.09107,17.545535c1.937027,0 3.509107,1.575589 3.509107,3.509107s-1.57208,3.509107 -3.509107,3.509107s-3.509107,-1.575589 -3.509107,-3.509107s1.57208,-3.509107 3.509107,-3.509107zm-28.072856,35.09107c1.937027,0 3.509107,1.575589 3.509107,3.509107s-1.57208,3.509107 -3.509107,3.509107s-3.509107,-1.575589 -3.509107,-3.509107s1.57208,-3.509107 3.509107,-3.509107zm0,49.127497c-1.937027,0 -3.509107,-1.575589 -3.509107,-3.509107s1.57208,-3.509107 3.509107,-3.509107s3.509107,1.575589 3.509107,3.509107s-1.57208,3.509107 -3.509107,3.509107zm3.509107,-13.390752l0,-22.349502c3.137142,-1.119405 5.561935,-3.663508 6.526939,-6.870831l19.342198,-0.968514l4.891695,37.512353c-2.014227,0.912368 -3.659999,2.449357 -4.758349,4.351293l-19.152706,-3.477525c-0.621112,-3.817908 -3.288033,-6.926977 -6.849777,-8.197274zm31.581963,16.899859c0,-1.933518 1.57208,-3.509107 3.509107,-3.509107s3.509107,1.575589 3.509107,3.509107s-1.57208,3.509107 -3.509107,3.509107s-3.509107,-1.575589 -3.509107,-3.509107zm10.436084,7.863909c0.487766,-0.428111 0.929913,-0.90184 1.329952,-1.41417l42.372466,14.124155l6.256738,20.152801c-0.870259,0.652694 -1.642262,1.421188 -2.273901,2.305483l-30.115156,-8.60433c-0.347402,-5.488243 -4.881168,-9.8641 -10.460648,-9.8641c-0.140364,0 -0.27371,0.035091 -0.410566,0.042109l-6.698885,-16.741949zm7.109451,30.736268c-1.937027,0 -3.509107,-1.575589 -3.509107,-3.509107s1.57208,-3.509107 3.509107,-3.509107s3.509107,1.575589 3.509107,3.509107s-1.57208,3.509107 -3.509107,3.509107zm49.127497,59.654818c-1.937027,0 -3.509107,-1.575589 -3.509107,-3.509107s1.57208,-3.509107 3.509107,-3.509107s3.509107,1.575589 3.509107,3.509107s-1.57208,3.509107 -3.509107,3.509107zm0,-45.61839c-1.937027,0 -3.509107,-1.575589 -3.509107,-3.509107s1.57208,-3.509107 3.509107,-3.509107s3.509107,1.575589 3.509107,3.509107s-1.57208,3.509107 -3.509107,3.509107zm0.11931,-14.962832l-4.460075,-14.366284l8.323602,2.775704l-3.863527,11.59058zm17.622735,-30.676613c4.147764,-0.0772 7.698981,-2.561648 9.341243,-6.116373l57.500227,5.228569c0.091237,0.350911 0.19651,0.694803 0.319329,1.031677l-26.925378,22.43723c-1.57208,-0.933422 -3.382779,-1.505407 -5.340861,-1.505407c-3.361724,0 -6.330429,1.614189 -8.256929,4.077582l-31.518799,-10.506266l4.881168,-14.647012zm34.89456,91.257835c-1.937027,0 -3.509107,-1.575589 -3.509107,-3.509107s1.57208,-3.509107 3.509107,-3.509107s3.509107,1.575589 3.509107,3.509107s-1.57208,3.509107 -3.509107,3.509107zm0,-56.145711c-1.937027,0 -3.509107,-1.575589 -3.509107,-3.509107s1.57208,-3.509107 3.509107,-3.509107s3.509107,1.575589 3.509107,3.509107s-1.57208,3.509107 -3.509107,3.509107zm42.109283,-35.09107c-1.937027,0 -3.509107,-1.575589 -3.509107,-3.509107s1.57208,-3.509107 3.509107,-3.509107s3.509107,1.575589 3.509107,3.509107s-1.57208,3.509107 -3.509107,3.509107z"/>
  <g stroke="null" transform="rotate(135 133.92749023437497,118.4255142211914) matrix(0.4386383695073411,0,0,0.4386383695073411,-1305.7749410202343,-1098.3975528674732) " id="svg_7">
   <rect stroke="null" y="2558.091557" id="svg_8" fill="#E56565" height="16" width="16" x="3050.208026"/>
   <rect stroke="null" id="svg_9" fill="#E56565" height="16" width="16" y="2590.091557" x="3050.208026"/>
   <rect stroke="null" id="svg_10" fill="#E56565" height="16" width="16" y="2574.091557" x="3066.208026"/>
   <rect stroke="null" id="svg_11" fill="#E56565" height="16" width="16" y="2574.091557" x="3034.208026"/>
   <rect stroke="null" id="svg_12" fill="#E56565" height="16" width="16" y="2926.091557" x="3450.208026"/>
   <rect stroke="null" id="svg_13" fill="#E56565" height="16" width="16" y="2958.091557" x="3450.208026"/>
   <rect stroke="null" id="svg_14" fill="#E56565" height="16" width="16" y="2942.091557" x="3466.208026"/>
   <rect stroke="null" id="svg_15" fill="#E56565" height="16" width="16" y="2942.091557" x="3434.208026"/>
   <rect stroke="null" id="svg_16" fill="#E56565" height="16" width="16" y="2590.091557" x="3498.208026"/>
   <rect stroke="null" id="svg_17" fill="#E56565" height="16" width="16" y="2622.091557" x="3498.208026"/>
   <rect stroke="null" id="svg_18" fill="#E56565" height="16" width="16" y="2606.091557" x="3514.208026"/>
   <rect stroke="null" id="svg_19" fill="#E56565" height="16" width="16" y="2606.091557" x="3482.208026"/>
   <rect stroke="null" id="svg_20" fill="#E56565" height="16" width="16" y="2942.091557" x="3130.208026"/>
   <rect stroke="null" id="svg_21" fill="#E56565" height="16" width="16" y="2974.091557" x="3130.208026"/>
   <rect stroke="null" id="svg_22" fill="#E56565" height="16" width="16" y="2958.091557" x="3146.208026"/>
   <rect stroke="null" id="svg_23" fill="#E56565" height="16" width="16" y="2958.091557" x="3114.208026"/>
   <rect stroke="null" id="svg_24" fill="#E56565" height="16" width="16" y="2854.091557" x="3082.208026"/>
   <rect stroke="null" id="svg_25" fill="#E56565" height="16" width="16" y="2886.091557" x="3082.208026"/>
   <rect stroke="null" id="svg_26" fill="#E56565" height="16" width="16" y="2870.091557" x="3098.208026"/>
   <rect stroke="null" id="svg_27" fill="#E56565" height="16" width="16" y="2870.091557" x="3066.208026"/>
  </g>
  <g stroke="null" transform="rotate(135 5059.7158203125,-1636.4759521484373) matrix(0.4386383695073411,0,0,0.4386383695073411,-1305.7749410202343,-1098.3975528674732) " id="svg_28"/>
  <g stroke="null" transform="rotate(135 5059.7158203125,-1636.4759521484373) matrix(0.4386383695073411,0,0,0.4386383695073411,-1305.7749410202343,-1098.3975528674732) " id="svg_29"/>
  <g stroke="null" transform="rotate(135 5059.7158203125,-1636.4759521484373) matrix(0.4386383695073411,0,0,0.4386383695073411,-1305.7749410202343,-1098.3975528674732) " id="svg_30"/>
  <g stroke="null" transform="rotate(135 5059.7158203125,-1636.4759521484373) matrix(0.4386383695073411,0,0,0.4386383695073411,-1305.7749410202343,-1098.3975528674732) " id="svg_31"/>
  <g stroke="null" transform="rotate(135 5059.7158203125,-1636.4759521484373) matrix(0.4386383695073411,0,0,0.4386383695073411,-1305.7749410202343,-1098.3975528674732) " id="svg_32"/>
  <g stroke="null" transform="rotate(135 5059.7158203125,-1636.4759521484373) matrix(0.4386383695073411,0,0,0.4386383695073411,-1305.7749410202343,-1098.3975528674732) " id="svg_33"/>
  <g stroke="null" transform="rotate(135 5059.7158203125,-1636.4759521484373) matrix(0.4386383695073411,0,0,0.4386383695073411,-1305.7749410202343,-1098.3975528674732) " id="svg_34"/>
  <g stroke="null" transform="rotate(135 5059.7158203125,-1636.4759521484373) matrix(0.4386383695073411,0,0,0.4386383695073411,-1305.7749410202343,-1098.3975528674732) " id="svg_35"/>
  <g stroke="null" transform="rotate(135 5059.7158203125,-1636.4759521484373) matrix(0.4386383695073411,0,0,0.4386383695073411,-1305.7749410202343,-1098.3975528674732) " id="svg_36"/>
  <g stroke="null" transform="rotate(135 5059.7158203125,-1636.4759521484373) matrix(0.4386383695073411,0,0,0.4386383695073411,-1305.7749410202343,-1098.3975528674732) " id="svg_37"/>
  <g stroke="null" transform="rotate(135 5059.7158203125,-1636.4759521484373) matrix(0.4386383695073411,0,0,0.4386383695073411,-1305.7749410202343,-1098.3975528674732) " id="svg_38"/>
  <g stroke="null" transform="rotate(135 5059.7158203125,-1636.4759521484373) matrix(0.4386383695073411,0,0,0.4386383695073411,-1305.7749410202343,-1098.3975528674732) " id="svg_39"/>
  <g stroke="null" transform="rotate(135 5059.7158203125,-1636.4759521484373) matrix(0.4386383695073411,0,0,0.4386383695073411,-1305.7749410202343,-1098.3975528674732) " id="svg_40"/>
  <g stroke="null" transform="rotate(135 5059.7158203125,-1636.4759521484373) matrix(0.4386383695073411,0,0,0.4386383695073411,-1305.7749410202343,-1098.3975528674732) " id="svg_41"/>
  <g stroke="null" transform="rotate(135 5059.7158203125,-1636.4759521484373) matrix(0.4386383695073411,0,0,0.4386383695073411,-1305.7749410202343,-1098.3975528674732) " id="svg_42"/>
 </g>
</svg>